<?xml version="1.0" encoding="UTF-8" standalone="no"?>
<!-- Created with Inkscape (http://www.inkscape.org/) -->

<svg
   xmlns:dc="http://purl.org/dc/elements/1.1/"
   xmlns:cc="http://creativecommons.org/ns#"
   xmlns:rdf="http://www.w3.org/1999/02/22-rdf-syntax-ns#"
   xmlns:svg="http://www.w3.org/2000/svg"
   xmlns="http://www.w3.org/2000/svg"
   xmlns:xlink="http://www.w3.org/1999/xlink"
   xmlns:sodipodi="http://sodipodi.sourceforge.net/DTD/sodipodi-0.dtd"
   xmlns:inkscape="http://www.inkscape.org/namespaces/inkscape"
   width="95.905106mm"
   height="95.93792mm"
   version="1.1"
   viewBox="0 0 95.905106 95.937922"
   xml:space="preserve"
   id="svg58"
   sodipodi:docname="charp_logo.svg"
   inkscape:version="0.92.4 (5da689c313, 2019-01-14)"><metadata
     id="metadata62"><rdf:RDF><cc:Work
         rdf:about=""><dc:format>image/svg+xml</dc:format><dc:type
           rdf:resource="http://purl.org/dc/dcmitype/StillImage" /><dc:title></dc:title></cc:Work></rdf:RDF></metadata><sodipodi:namedview
     pagecolor="#ffffff"
     bordercolor="#666666"
     borderopacity="1"
     objecttolerance="10"
     gridtolerance="10"
     guidetolerance="10"
     inkscape:pageopacity="0"
     inkscape:pageshadow="2"
     inkscape:window-width="1920"
     inkscape:window-height="1137"
     id="namedview60"
     showgrid="false"
     fit-margin-top="0"
     fit-margin-left="0"
     fit-margin-right="0"
     fit-margin-bottom="0"
     inkscape:zoom="0.91821707"
     inkscape:cx="248.33776"
     inkscape:cy="146.73514"
     inkscape:window-x="-8"
     inkscape:window-y="-8"
     inkscape:window-maximized="1"
     inkscape:current-layer="svg58" /><defs
     id="defs22"><linearGradient
       id="linearGradient8711"><stop
         stop-color="#999"
         offset=".38623"
         id="stop2" /><stop
         stop-color="#00519e"
         offset=".9369"
         id="stop4" /></linearGradient><linearGradient
       id="linearGradient4838"><stop
         stop-color="#fff"
         offset="0"
         id="stop7" /><stop
         stop-color="#fff"
         stop-opacity="0"
         offset="1"
         id="stop9" /></linearGradient><radialGradient
       id="radialGradient4840"
       cx="130.07001"
       cy="111.01"
       r="6.3499999"
       gradientTransform="translate(1.6545,-0.080612)"
       gradientUnits="userSpaceOnUse"
       xlink:href="#linearGradient4838" /><radialGradient
       id="radialGradient4840-4"
       cx="130.07001"
       cy="111.01"
       r="6.3499999"
       gradientTransform="translate(2.8967,-0.092444)"
       gradientUnits="userSpaceOnUse"
       xlink:href="#linearGradient4838" /><linearGradient
       id="linearGradient9546"
       x1="156.03999"
       x2="155.97"
       y1="84.529999"
       y2="94.836998"
       gradientTransform="matrix(0.82991,0,0,1.3977,-51.801,-280.99)"
       gradientUnits="userSpaceOnUse"
       xlink:href="#linearGradient8711" /><linearGradient
       id="linearGradient9582"
       x1="156.03999"
       x2="155.97"
       y1="84.529999"
       y2="94.836998"
       gradientTransform="matrix(0.82991,0,0,1.3977,-290.8,-140.71)"
       gradientUnits="userSpaceOnUse"
       xlink:href="#linearGradient8711" /><linearGradient
       id="linearGradient9627"
       x1="156.03999"
       x2="155.97"
       y1="84.529999"
       y2="94.836998"
       gradientTransform="matrix(0.82991,0,0,1.3977,-40.944,-3.7351)"
       gradientUnits="userSpaceOnUse"
       xlink:href="#linearGradient8711" /><linearGradient
       id="linearGradient9660"
       x1="50.046001"
       x2="145.39"
       y1="176.53999"
       y2="80.561996"
       gradientUnits="userSpaceOnUse"><stop
         stop-color="#00519e"
         offset="0"
         id="stop17" /><stop
         stop-color="#00519e"
         stop-opacity=".42473"
         offset="1"
         id="stop19" /></linearGradient><radialGradient
       inkscape:collect="always"
       xlink:href="#linearGradient4838"
       id="radialGradient4573"
       gradientUnits="userSpaceOnUse"
       gradientTransform="translate(2.8967,-0.092444)"
       cx="130.07001"
       cy="111.01"
       r="6.3499999" /><radialGradient
       inkscape:collect="always"
       xlink:href="#linearGradient4838"
       id="radialGradient4575"
       gradientUnits="userSpaceOnUse"
       gradientTransform="translate(2.8967,-0.092444)"
       cx="130.07001"
       cy="111.01"
       r="6.3499999" /></defs><g
     transform="matrix(0.99999862,0,0,0.99757678,-50.232748,-80.177455)"
     id="g56"><path
       d="m 68.295,110.57 c -5.467,13.48 -1.3305,35.81 12.882,45.865 -2.6946,-0.95224 -3.0843,-1.664 -4.415,-2.3505 -6.7937,-4.97 -11.244,-12.576 -13.351,-20.695 -1.9246,-7.4171 -0.97564,-17.37 0.86438,-22.173 2.6817,0.24027 2.8926,-0.71251 4.0199,-0.64548 z m 28.146,65.909 c -21.499,-0.80694 -41.4,-17.467 -45.312,-38.744 -3.6114,-17.588 3.9489,-36.51 18.05,-47.433 11.499,-9.2994 27.506,-12.248 41.65,-8.0779 16.349,4.4349 30.479,17.739 33.967,34.59 4.6199,18.979 -2.8787,40.791 -19.551,51.507 -8.4028,5.6877 -18.646,8.7129 -28.803,8.1569 z m 6.107,-6.4618 c 19.514,-0.94652 37.603,-17.563 38.251,-37.453 0.17278,-1.9331 0.23923,-7.6264 -0.16555,-7.1133 -1.2191,9.3098 -3.1189,19.018 -9.3285,26.421 -10.172,13.119 -28.688,18.831 -44.474,13.655 -9.5534,-2.9436 -18.153,-9.4982 -22.761,-18.462 8.3843,9.858 20.788,16.726 33.95,16.37 14.544,0.0397 29.379,-8.5993 34.531,-22.568 3.5081,-9.0331 4.6713,-18.975 3.923,-28.596 -1.0261,-6.9336 -5.0728,-13.233 -10.91,-17.097 -13.407,-9.8414 -30.609,-13.837 -45.834,-4.9506 -9.8059,5.7234 -12.507,9.6557 -16.681,16.368 -4.8491,7.7976 -5.9045,13.612 -6.2882,22.576 -0.12529,19.198 15.034,37.1 34.008,40.125 3.8711,0.76059 7.8437,1.0183 11.779,0.72561 z m 20.942,-64.174 c -5.1656,-11.244 -17.023,-16.977 -29.279,-15.943 -2.1365,0.18025 -7.519,0.38423 -2.927,-0.38729 12.425,-2.5955 26.475,1.5696 34.463,11.686 -1.1577,1.3253 -1.4715,3.1153 -2.2569,4.6445 z"
       id="path24"
       style="fill:url(#linearGradient9660);stroke-width:0.090533"
       inkscape:connector-curvature="0" /><rect
       transform="rotate(-5.0424)"
       x="86.666"
       y="114.09"
       width="3.5546999"
       height="14.874"
       id="rect26"
       style="fill:url(#linearGradient9627)" /><rect
       transform="rotate(-128.27)"
       x="-163.19"
       y="-22.889"
       width="3.5546999"
       height="14.874"
       id="rect28"
       style="fill:url(#linearGradient9582)" /><rect
       transform="rotate(113.1)"
       x="75.808998"
       y="-163.17"
       width="3.5546999"
       height="14.874"
       id="rect30"
       style="fill:url(#linearGradient9546)" /><g
       transform="matrix(0.76031,0,0,0.76031,-17.981,56.172)"
       id="g36"><circle
         cx="130.44"
         cy="112.27"
         r="6.3499999"
         id="circle32"
         style="fill:#999999" /><circle
         cx="130.44"
         cy="112.27"
         r="6.3499999"
         id="circle34"
         style="fill:url(#radialGradient4573)" /></g><g
       transform="matrix(0.76031,0,0,0.76031,22.804,50.934)"
       id="g42"><circle
         cx="130.44"
         cy="112.27"
         r="6.3499999"
         id="circle38"
         style="fill:#999999" /><circle
         cx="130.44"
         cy="112.27"
         r="6.3499999"
         id="circle40"
         style="fill:url(#radialGradient4575)" /></g><g
       transform="matrix(1.3977,0,0,1.3977,-80.785,-29.941)"
       id="g48"><circle
         cx="129.2"
         cy="112.28"
         r="6.3499999"
         id="circle44"
         style="fill:#00519e" /><circle
         cx="129.2"
         cy="112.28"
         r="6.3499999"
         id="circle46"
         style="fill:url(#radialGradient4840)" /></g><g
       transform="matrix(0.76031,0,0,0.76031,-1.371,18.673)"
       id="g54"><circle
         cx="130.44"
         cy="112.27"
         r="6.3499999"
         id="circle50"
         style="fill:#999999" /><circle
         cx="130.44"
         cy="112.27"
         r="6.3499999"
         id="circle52"
         style="fill:url(#radialGradient4840-4)" /></g></g></svg>